<svg width="14" height="8" viewBox="0 0 14 8" fill="none" xmlns="http://www.w3.org/2000/svg">
<path fill-rule="evenodd" clip-rule="evenodd" d="M4.86957 7.80047C4.61158 8.06316 4.18948 8.06696 3.9268 7.80897L0.532858 4.47563C0.405227 4.35028 0.33333 4.17889 0.33333 4C0.33333 3.82111 0.405227 3.64972 0.532858 3.52437L3.9268 0.191034C4.18948 -0.0669596 4.61158 -0.063157 4.86957 0.199528C5.12756 0.462212 5.12376 0.884305 4.86108 1.1423L2.6302 3.33333L13 3.33333C13.3682 3.33333 13.6667 3.63181 13.6667 4C13.6667 4.36819 13.3682 4.66667 13 4.66667L2.6302 4.66667L4.86108 6.8577C5.12376 7.11569 5.12756 7.53779 4.86957 7.80047Z" fill="white"/>
</svg>
