<svg width="38" height="38" viewBox="0 0 38 38" fill="none" xmlns="http://www.w3.org/2000/svg">
<path d="M0 8.61342C0 6.00706 0 3.40096 0 0.795134C0 0 0 0 0.810457 0C5.47267 0.00752663 10.1341 0.0150533 14.7947 0.0225799C15.4253 0.0225799 16.0567 -0.0032257 16.6873 0.00806424C17.1607 0.0161285 17.2357 0.108867 17.2365 0.591915C17.2365 2.25853 17.2365 3.92514 17.2365 5.59175C17.2365 9.27227 17.2365 12.9531 17.2365 16.6341C17.2365 17.176 17.1422 17.2736 16.6148 17.2736H0.735459C0.0499983 17.2736 0.000806424 17.2244 0.000806424 16.5519L0 8.61342Z" fill="#1DA95B"/>
<path d="M28.5474 17.2738H20.8106C20.0041 17.2738 19.9283 17.2061 19.9396 16.4069C20.0122 11.3966 19.9598 6.38707 19.9791 1.37756C19.9791 1.07031 19.9114 0.769517 19.9638 0.455012C20.0098 0.182441 20.1251 0.0824439 20.3864 0.102605C21.2006 0.174302 22.0077 0.311297 22.8 0.512268C28.6918 1.9477 32.8884 5.46855 35.5101 10.899C36.3665 12.6731 36.8245 14.5707 37.0761 16.519C37.1568 17.1698 37.0673 17.2714 36.4052 17.2722H28.5474V17.2738Z" fill="#1DA95B"/>
<path d="M8.64081 19.9995C11.3004 19.9995 13.9603 19.9995 16.6204 19.9995C17.1986 19.9995 17.2333 20.0333 17.2341 20.6164C17.2341 25.9355 17.2341 31.2547 17.2341 36.5739C17.2341 37.1053 17.1808 37.1715 16.6518 37.1134C14.0374 36.8255 11.5762 36.0465 9.3053 34.7175C4.96109 32.1716 2.12571 28.4476 0.707205 23.6284C0.399957 22.5848 0.22335 21.5179 0.0862582 20.4414C0.0362598 20.0535 0.212867 19.9914 0.541082 19.9922C3.24099 19.9995 5.9409 19.9995 8.64081 19.9995Z" fill="#1DA95B"/>
<path d="M19.9776 36.3699C19.9776 31.334 19.9776 26.2979 19.9776 21.2615C19.9776 20.9543 19.8969 20.6518 19.9671 20.339C20.0155 20.1172 20.1163 20.0075 20.3413 20.0067C20.5663 20.0059 20.7977 19.9962 21.0259 19.9962L36.3375 19.9922H36.4585C37.0689 20.0011 37.1488 20.0728 37.077 20.6704C36.6786 23.9679 35.5303 26.971 33.5408 29.6427C30.4022 33.8578 26.2145 36.2892 21.0308 37.0424C20.938 37.0561 20.8477 37.086 20.755 37.0989C20.0413 37.1981 19.9308 37.0956 19.9776 36.3699Z" fill="#1DA95B"/>
</svg>
