<svg width="11" height="14" viewBox="0 0 11 14" fill="none" xmlns="http://www.w3.org/2000/svg">
<path d="M8.4 5.13333H7.93333V2.8C7.93333 2.05739 7.63833 1.3452 7.11323 0.820101C6.58813 0.294999 5.87594 0 5.13333 0C4.39073 0 3.67854 0.294999 3.15343 0.820101C2.62833 1.3452 2.33333 2.05739 2.33333 2.8V5.13333H1.86667C1.37176 5.13387 0.897282 5.33071 0.547331 5.68066C0.19738 6.03061 0.000540416 6.5051 0 7V12.1333C0.000540416 12.6282 0.19738 13.1027 0.547331 13.4527C0.897282 13.8026 1.37176 13.9995 1.86667 14H8.4C8.89491 13.9995 9.36938 13.8026 9.71934 13.4527C10.0693 13.1027 10.2661 12.6282 10.2667 12.1333V7C10.2661 6.5051 10.0693 6.03061 9.71934 5.68066C9.36938 5.33071 8.89491 5.13387 8.4 5.13333ZM7 5.13333H3.26667V2.8C3.26667 2.30493 3.46333 1.83014 3.8134 1.48007C4.16347 1.13 4.63826 0.933333 5.13333 0.933333C5.6284 0.933333 6.1032 1.13 6.45327 1.48007C6.80333 1.83014 7 2.30493 7 2.8V5.13333Z" fill="#1DA95B"/>
</svg>
