<svg width="24" height="24" viewBox="0 0 24 24" fill="none" xmlns="http://www.w3.org/2000/svg">
<path d="M0 5.56741C0 3.88275 0 2.19826 0 0.513947C0 0 0 0 0.523851 0C3.53734 0.00486495 6.55031 0.0097299 9.56276 0.0145949C9.97037 0.0145949 10.3785 -0.00208498 10.7861 0.00521245C11.0921 0.0104249 11.1406 0.0703681 11.1411 0.382594C11.1411 1.45983 11.1411 2.53707 11.1411 3.61431C11.1411 5.99327 11.1411 8.37241 11.1411 10.7517C11.1411 11.102 11.0801 11.1651 10.7392 11.1651H0.475375C0.0323172 11.1651 0.000521245 11.1333 0.000521245 10.6985L0 5.56741Z" fill="#1DA95B"/>
<path d="M18.4521 11.1649H13.4513C12.93 11.1649 12.881 11.1212 12.8883 10.6046C12.9352 7.36611 12.9014 4.12813 12.9139 0.890161C12.9139 0.691567 12.8701 0.497143 12.904 0.293857C12.9337 0.117677 13.0082 0.0530424 13.1771 0.0660735C13.7034 0.112416 14.2251 0.200965 14.7372 0.330866C18.5454 1.25868 21.2579 3.53444 22.9525 7.0445C23.5061 8.19124 23.8021 9.41773 23.9648 10.6771C24.0169 11.0977 23.959 11.1634 23.5311 11.1639H18.4521V11.1649Z" fill="#1DA95B"/>
<path d="M5.58513 12.9271C7.3042 12.9271 9.02344 12.9271 10.7429 12.9271C11.1166 12.9271 11.139 12.949 11.1395 13.3258C11.1395 16.7639 11.1395 20.2021 11.1395 23.6402C11.1395 23.9837 11.1051 24.0264 10.7632 23.9889C9.0733 23.8028 7.48246 23.2993 6.01464 22.4403C3.20669 20.7947 1.374 18.3876 0.457127 15.2727C0.258533 14.5982 0.14438 13.9086 0.0557688 13.2127C0.0234516 12.962 0.137604 12.9218 0.349751 12.9224C2.09488 12.9271 3.84001 12.9271 5.58513 12.9271Z" fill="#1DA95B"/>
<path d="M12.9128 23.5083C12.9128 20.2533 12.9128 16.9981 12.9128 13.7428C12.9128 13.5442 12.8607 13.3487 12.906 13.1465C12.9373 13.0032 13.0024 12.9323 13.1479 12.9317C13.2933 12.9312 13.4429 12.925 13.5904 12.925L23.4873 12.9224H23.5655C23.9601 12.9281 24.0117 12.9745 23.9653 13.3607C23.7078 15.4921 22.9655 17.4332 21.6796 19.1601C19.6509 21.8846 16.9441 23.4562 13.5935 23.943C13.5336 23.9519 13.4752 23.9712 13.4153 23.9795C12.954 24.0436 12.8826 23.9774 12.9128 23.5083Z" fill="#1DA95B"/>
</svg>
