<svg width="78" height="32" viewBox="0 0 78 32" fill="none" xmlns="http://www.w3.org/2000/svg">
<rect width="78" height="32" rx="8" fill="#444E50"/>
<path fill-rule="evenodd" clip-rule="evenodd" d="M10 6C8.34315 6 7 7.35919 7 9.03583V19.9283C7 21.0782 7.64201 22.1294 8.65836 22.6437L14.6584 25.6795C15.5029 26.1068 16.4971 26.1068 17.3416 25.6795L23.3416 22.6437C24.358 22.1294 25 21.0782 25 19.9283V9.03583C25 7.35919 23.6569 6 22 6H10ZM9 9.03583C9 8.47695 9.44772 8.02389 10 8.02389H22C22.5523 8.02389 23 8.47695 23 9.03583V19.9283C23 20.3116 22.786 20.662 22.4472 20.8334L16.4472 23.8693C16.1657 24.0117 15.8343 24.0117 15.5528 23.8693L9.55279 20.8334C9.214 20.662 9 20.3116 9 19.9283V9.03583ZM19.308 13.6798C19.6334 13.2282 19.5355 12.5952 19.0892 12.266C18.643 11.9367 18.0174 12.0358 17.692 12.4874L15.5506 15.4592L14.7841 14.4794C14.4413 14.0412 13.8124 13.9672 13.3793 14.3141C12.9463 14.661 12.8732 15.2974 13.216 15.7356L14.7993 17.7595C14.9933 18.0075 15.2907 18.1494 15.6032 18.1431C15.9156 18.1369 16.2072 17.9831 16.3914 17.7276L19.308 13.6798Z" fill="white"/>
<path d="M32.63 18.408C33.476 20.19 35.402 21.252 37.922 21.252C41 21.252 42.8 19.686 42.8 17.364C42.8 15.564 41.72 14.412 39.344 13.836L37.274 13.35C35.834 13.008 35.312 12.522 35.312 11.784C35.312 10.794 36.158 10.2 37.67 10.2C39.056 10.2 40.154 10.704 40.856 11.658L42.494 10.452C41.756 9.03 39.956 8.148 37.706 8.148C34.79 8.148 32.99 9.66 32.99 11.82C32.99 13.602 34.178 14.79 36.536 15.348L38.57 15.834C39.938 16.176 40.478 16.662 40.478 17.472C40.478 18.534 39.578 19.2 37.994 19.2C36.356 19.2 35.024 18.498 34.286 17.22L32.63 18.408ZM52.0097 11.838V13.314C51.4877 12.234 50.2637 11.586 48.8777 11.586C46.4477 11.586 44.6657 13.584 44.6657 16.428C44.6657 19.254 46.4477 21.252 48.8777 21.252C50.2637 21.252 51.4877 20.622 52.0097 19.542V21H54.1697V11.838H52.0097ZM52.0637 16.428C52.0637 18.102 51.0557 19.254 49.4897 19.254C47.9237 19.254 46.9157 18.102 46.9157 16.428C46.9157 14.718 47.9237 13.584 49.4897 13.584C51.0557 13.584 52.0637 14.718 52.0637 16.428ZM58.0835 21H60.2795V13.764H62.7455V11.838H60.2795V10.83C60.2795 9.948 60.6935 9.57 61.6835 9.57C61.9895 9.57 62.3495 9.606 62.7635 9.678V7.824C62.2955 7.716 61.7915 7.662 61.2695 7.662C59.0915 7.662 58.0835 8.688 58.0835 10.65V11.838H56.3195V13.764H58.0835V21ZM73.0373 17.076C73.0733 16.788 73.0913 16.5 73.0913 16.23C73.0913 13.44 71.2733 11.586 68.6273 11.586C65.8733 11.586 63.9833 13.62 63.9833 16.464C63.9833 19.326 65.9273 21.252 68.8433 21.252C70.5173 21.252 71.9213 20.622 72.7853 19.488L71.4713 18.192C70.8053 18.966 69.9593 19.344 68.9153 19.344C67.4033 19.344 66.4493 18.534 66.2153 17.076H73.0373ZM66.2153 15.582C66.4493 14.268 67.2953 13.494 68.6453 13.494C69.9593 13.494 70.8053 14.232 70.8953 15.582H66.2153Z" fill="white"/>
</svg>
