<svg width="99" height="32" viewBox="0 0 99 32" fill="none" xmlns="http://www.w3.org/2000/svg">
<rect width="99" height="32" rx="8" fill="#444E50"/>
<path fill-rule="evenodd" clip-rule="evenodd" d="M12 13V12C12 9.79086 13.7909 8 16 8C18.2091 8 20 9.79086 20 12V13L12 13ZM10 13.3451V12C10 8.68629 12.6863 6 16 6C19.3137 6 22 8.68629 22 12V13.3451C22.6016 13.7323 23 14.4079 23 15.1765V19C23 22.866 19.866 26 16 26C12.134 26 9 22.866 9 19V15.1765C9 14.4079 9.39842 13.7323 10 13.3451ZM11.1765 15C11.079 15 11 15.079 11 15.1765L11 19C11 21.7614 13.2386 24 16 24C18.7614 24 21 21.7614 21 19V15.1765C21 15.079 20.921 15 20.8235 15H20H12H11.1765ZM16 17C17.1046 17 18 17.8954 18 19C18 20.1046 17.1046 21 16 21C14.8954 21 14 20.1046 14 19C14 17.8954 14.8954 17 16 17Z" fill="white"/>
<path d="M32.63 18.408C33.476 20.19 35.402 21.252 37.922 21.252C41 21.252 42.8 19.686 42.8 17.364C42.8 15.564 41.72 14.412 39.344 13.836L37.274 13.35C35.834 13.008 35.312 12.522 35.312 11.784C35.312 10.794 36.158 10.2 37.67 10.2C39.056 10.2 40.154 10.704 40.856 11.658L42.494 10.452C41.756 9.03 39.956 8.148 37.706 8.148C34.79 8.148 32.99 9.66 32.99 11.82C32.99 13.602 34.178 14.79 36.536 15.348L38.57 15.834C39.938 16.176 40.478 16.662 40.478 17.472C40.478 18.534 39.578 19.2 37.994 19.2C36.356 19.2 35.024 18.498 34.286 17.22L32.63 18.408ZM53.7197 17.076C53.7557 16.788 53.7737 16.5 53.7737 16.23C53.7737 13.44 51.9557 11.586 49.3097 11.586C46.5557 11.586 44.6657 13.62 44.6657 16.464C44.6657 19.326 46.6097 21.252 49.5257 21.252C51.1997 21.252 52.6037 20.622 53.4677 19.488L52.1537 18.192C51.4877 18.966 50.6417 19.344 49.5977 19.344C48.0857 19.344 47.1317 18.534 46.8977 17.076H53.7197ZM46.8977 15.582C47.1317 14.268 47.9777 13.494 49.3277 13.494C50.6417 13.494 51.4877 14.232 51.5777 15.582H46.8977ZM55.678 16.428C55.678 19.254 57.604 21.252 60.448 21.252C62.194 21.252 63.634 20.496 64.408 19.182L62.752 18.012C62.23 18.822 61.438 19.254 60.502 19.254C58.936 19.254 57.928 18.138 57.928 16.428C57.928 14.7 58.936 13.602 60.502 13.602C61.492 13.602 62.23 14.016 62.752 14.826L64.408 13.656C63.634 12.36 62.194 11.586 60.448 11.586C57.604 11.586 55.678 13.584 55.678 16.428ZM66.3832 17.508C66.3832 19.812 67.9672 21.252 70.5052 21.252C73.0432 21.252 74.6272 19.812 74.6272 17.508V11.838H72.4312V17.274C72.4312 18.588 71.7472 19.254 70.5052 19.254C69.2632 19.254 68.5792 18.588 68.5792 17.274V11.838H66.3832V17.508ZM83.21 11.802C82.976 11.712 82.706 11.676 82.418 11.676C81.176 11.676 80.168 12.306 79.718 13.368V11.838H77.558V21H79.754V16.482C79.754 14.61 80.564 13.764 82.202 13.764C82.49 13.764 82.832 13.8 83.21 13.854V11.802ZM93.48 17.076C93.516 16.788 93.534 16.5 93.534 16.23C93.534 13.44 91.716 11.586 89.07 11.586C86.316 11.586 84.426 13.62 84.426 16.464C84.426 19.326 86.37 21.252 89.286 21.252C90.96 21.252 92.364 20.622 93.228 19.488L91.914 18.192C91.248 18.966 90.402 19.344 89.358 19.344C87.846 19.344 86.892 18.534 86.658 17.076H93.48ZM86.658 15.582C86.892 14.268 87.738 13.494 89.088 13.494C90.402 13.494 91.248 14.232 91.338 15.582H86.658Z" fill="white"/>
</svg>
