<svg width="68" height="68" viewBox="0 0 68 68" fill="none" xmlns="http://www.w3.org/2000/svg">
<path d="M66.8307 33.9346C66.8307 33.921 66.8307 33.921 66.8307 33.9074C66.8239 32.8558 66.2268 31.9466 65.2566 31.5191L23.23 13.1316C22.1173 12.6431 20.8688 12.9552 20.1157 13.9119C19.3626 14.8686 19.3558 16.151 20.0953 17.1212L32.8716 33.8871C32.8919 33.921 32.8919 33.9617 32.8716 33.9956L20.0953 50.7615C19.3626 51.725 19.3693 53.0209 20.1157 53.9708C20.1835 54.0522 20.2582 54.1404 20.3328 54.2151C21.0927 54.975 22.2191 55.1921 23.23 54.7511L65.2634 36.3297C66.2268 35.909 66.8307 34.993 66.8307 33.9346ZM22.1105 15.581C22.0834 15.5403 22.0698 15.5268 22.1105 15.4725C22.1512 15.4182 22.1716 15.425 22.2191 15.4453L61.5384 32.659L35.0971 32.6658C35.036 32.5504 22.1105 15.581 22.1105 15.581ZM22.2191 52.4102C22.1716 52.4306 22.158 52.4442 22.1105 52.3831C22.0698 52.3288 22.0834 52.3153 22.1105 52.2745C22.1105 52.2745 35.036 35.3052 35.0971 35.1898L61.5384 35.1966L22.2191 52.4102Z" fill="#445A65"/>
<path d="M35.0903 37.6798C35.0496 37.7613 28.5224 46.3376 24.7431 51.2974L55.8525 37.6798L35.0903 37.6798ZM55.8593 32.6657L24.7431 19.0413C28.5291 24.008 35.0496 32.5775 35.0903 32.6589L55.8593 32.6657Z" fill="#1DA95B"/>
</svg>
