<svg width="168" height="162" viewBox="0 0 168 162" fill="none" xmlns="http://www.w3.org/2000/svg">
<path d="M1.99589 148.029C3.09819 148.029 3.99179 147.135 3.99179 146.033C3.99179 144.931 3.09819 144.037 1.99589 144.037C0.893592 144.037 0 144.931 0 146.033C0 147.135 0.893592 148.029 1.99589 148.029Z" fill="#444E50"/>
<path d="M10.9775 144.037H7.98369C7.45434 144.037 6.94668 144.247 6.57238 144.622C6.19807 144.996 5.98779 145.504 5.98779 146.033C5.98779 146.562 6.19807 147.07 6.57238 147.444C6.94668 147.819 7.45434 148.029 7.98369 148.029H10.9775C11.5069 148.029 12.0145 147.819 12.3888 147.444C12.7631 147.07 12.9734 146.562 12.9734 146.033C12.9734 145.504 12.7631 144.996 12.3888 144.622C12.0145 144.247 11.5069 144.037 10.9775 144.037ZM159.672 144.037H156.678C156.148 144.037 155.641 144.247 155.266 144.622C154.892 144.996 154.682 145.504 154.682 146.033C154.682 146.562 154.892 147.07 155.266 147.444C155.641 147.819 156.148 148.029 156.678 148.029H159.672C160.201 148.029 160.709 147.819 161.083 147.444C161.457 147.07 161.667 146.562 161.667 146.033C161.667 145.504 161.457 144.996 161.083 144.622C160.709 144.247 160.201 144.037 159.672 144.037Z" fill="#444E50"/>
<path d="M165.659 148.029C166.762 148.029 167.655 147.135 167.655 146.033C167.655 144.931 166.762 144.037 165.659 144.037C164.557 144.037 163.663 144.931 163.663 146.033C163.663 147.135 164.557 148.029 165.659 148.029Z" fill="#444E50"/>
<path d="M117.911 152.021H109.621C109.119 152.061 108.651 152.288 108.309 152.658C107.968 153.028 107.778 153.513 107.778 154.016C107.778 154.52 107.968 155.005 108.309 155.375C108.651 155.744 109.119 155.972 109.621 156.012H117.911C118.413 155.972 118.881 155.744 119.223 155.375C119.564 155.005 119.754 154.52 119.754 154.016C119.754 153.513 119.564 153.028 119.223 152.658C118.881 152.288 118.413 152.061 117.911 152.021ZM58.0344 152.021H49.7437C49.242 152.061 48.7738 152.288 48.4324 152.658C48.091 153.028 47.9014 153.513 47.9014 154.016C47.9014 154.52 48.091 155.005 48.4324 155.375C48.7738 155.744 49.242 155.972 49.7437 156.012H58.0344C58.5362 155.972 59.0044 155.744 59.3458 155.375C59.6872 155.005 59.8768 154.52 59.8768 154.016C59.8768 153.513 59.6872 153.028 59.3458 152.658C59.0044 152.288 58.5362 152.061 58.0344 152.021ZM103.786 152.021H63.8685C63.3392 152.021 62.8315 152.231 62.4572 152.605C62.0829 152.979 61.8726 153.487 61.8726 154.016C61.8726 154.546 62.0829 155.053 62.4572 155.428C62.8315 155.802 63.3392 156.012 63.8685 156.012H79.7758V158.008H71.8521C71.3228 158.008 70.8151 158.218 70.4408 158.593C70.0665 158.967 69.8562 159.475 69.8562 160.004C69.8562 160.533 70.0665 161.041 70.4408 161.415C70.8151 161.79 71.3228 162 71.8521 162H96.8008C97.3301 162 97.8378 161.79 98.2121 161.415C98.5864 161.041 98.7967 160.533 98.7967 160.004C98.7967 159.475 98.5864 158.967 98.2121 158.593C97.8378 158.218 97.3301 158.008 96.8008 158.008H87.8791V156.012H103.786C104.316 156.012 104.823 155.802 105.198 155.428C105.572 155.053 105.782 154.546 105.782 154.016C105.782 153.487 105.572 152.979 105.198 152.605C104.823 152.231 104.316 152.021 103.786 152.021Z" fill="#1DA95B"/>
<path d="M128.152 55.9697L129.91 52.7364L133.123 50.969L129.91 49.2006L128.152 45.9673L126.395 49.2006L123.182 50.969L126.395 52.7364L128.152 55.9697Z" fill="#1DA95B"/>
<path d="M91.9779 32.29L93.7352 29.0567L96.9486 27.2883L93.7352 25.5199L91.9779 22.2876L90.2205 25.5199L87.0071 27.2883L90.2205 29.0567L91.9779 32.29Z" fill="#1DA95B"/>
<path d="M121.073 78.1508L117.86 79.9192L121.073 81.6876L122.83 84.9209L124.588 81.6876L127.801 79.9192L124.588 78.1508L122.83 74.9175L121.073 78.1508Z" fill="#1DA95B"/>
<path d="M50.054 45.2056L51.8123 48.4389L53.5697 45.2056L56.7831 43.4372L53.5697 41.6699L51.8123 38.4365L50.054 41.6699L46.8406 43.4372L50.054 45.2056Z" fill="#1DA95B"/>
<path d="M33.6827 88.1382L31.9253 91.3705L28.7119 93.1389L31.9253 94.9073L33.6827 98.1406L35.4401 94.9073L38.6535 93.1389L35.4401 91.3705L33.6827 88.1382Z" fill="#1DA95B"/>
<path d="M110.106 40.9274C111.209 40.9274 112.102 40.0284 112.102 38.9195C112.102 37.8106 111.209 36.9116 110.106 36.9116C109.004 36.9116 108.111 37.8106 108.111 38.9195C108.111 40.0284 109.004 40.9274 110.106 40.9274Z" fill="#444E50"/>
<path d="M51.3963 103.347C52.4986 103.347 53.3922 102.448 53.3922 101.339C53.3922 100.23 52.4986 99.3311 51.3963 99.3311C50.294 99.3311 49.4004 100.23 49.4004 101.339C49.4004 102.448 50.294 103.347 51.3963 103.347Z" fill="#444E50"/>
<path d="M109.525 96.152C110.627 96.152 111.521 95.253 111.521 94.1441C111.521 93.0352 110.627 92.1362 109.525 92.1362C108.422 92.1362 107.529 93.0352 107.529 94.1441C107.529 95.253 108.422 96.152 109.525 96.152Z" fill="#444E50"/>
<path d="M46.2398 29.548C47.3421 29.548 48.2357 28.649 48.2357 27.5401C48.2357 26.4312 47.3421 25.5322 46.2398 25.5322C45.1375 25.5322 44.2439 26.4312 44.2439 27.5401C44.2439 28.649 45.1375 29.548 46.2398 29.548Z" fill="#444E50"/>
<path d="M74.3479 42.3497C75.4502 42.3497 76.3438 41.4508 76.3438 40.3419C76.3438 39.2329 75.4502 38.334 74.3479 38.334C73.2456 38.334 72.3521 39.2329 72.3521 40.3419C72.3521 41.4508 73.2456 42.3497 74.3479 42.3497Z" fill="#444E50"/>
<path d="M30.0242 53.6451C31.1265 53.6451 32.0201 52.7462 32.0201 51.6373C32.0201 50.5283 31.1265 49.6294 30.0242 49.6294C28.9219 49.6294 28.0283 50.5283 28.0283 51.6373C28.0283 52.7462 28.9219 53.6451 30.0242 53.6451Z" fill="#444E50"/>
<path d="M146.858 57.7447C142.647 63.6725 119.185 69.4207 98.6272 72.8137C94.326 73.5222 89.975 74.1709 85.6938 74.7297C81.5024 75.2886 77.2212 75.7776 72.9799 76.1967C62.7111 77.2146 53.0509 77.7435 44.9277 77.7435C42.0735 77.7435 39.399 77.6737 36.9641 77.5439C22.6834 76.7655 20.4081 73.9913 20.0089 71.666C19.9237 71.0972 19.9577 70.5169 20.1089 69.962C20.2601 69.407 20.5251 68.8896 20.8871 68.4427C25.9667 61.5169 54.498 55.4594 77.83 52.2959L75.6944 56.637C40.9558 61.5568 25.0486 68.2531 23.9808 70.9775C25.8969 73.2628 42.343 75.1988 72.5808 72.2049C76.7921 71.7858 81.0234 71.2968 85.1749 70.7479C89.4162 70.1991 93.7173 69.5604 97.9885 68.8518C127.588 63.9619 142.687 57.8944 143.694 55.2798C143.641 54.772 143.782 54.2628 144.09 53.8552C144.397 53.4476 144.848 53.172 145.351 53.0843C145.61 53.0391 145.876 53.046 146.132 53.1047C146.388 53.1633 146.631 53.2725 146.844 53.4258C147.058 53.5791 147.239 53.7735 147.377 53.9976C147.514 54.2217 147.606 54.471 147.646 54.7309C147.726 55.2604 147.697 55.8006 147.561 56.3186C147.425 56.8366 147.186 57.3218 146.858 57.7447Z" fill="#1DA95B"/>
<path d="M108.437 62.8739C106.431 63.2731 104.326 63.6723 102.09 64.0715L90.3043 62.345L83.8277 49.1322L77.351 62.3451L62.8708 64.4706L67.152 68.672C65.3257 68.8217 63.5594 68.9614 61.8529 69.0812L60.0865 67.3447C59.5529 66.8187 59.176 66.1547 58.998 65.4269C58.82 64.699 58.8479 63.936 59.0786 63.2232C59.308 62.5134 59.7315 61.8821 60.3012 61.4006C60.8708 60.9191 61.5639 60.6067 62.302 60.4988L74.6965 58.6825L75.6944 56.6367L77.83 52.2956L80.245 47.3558C80.5711 46.6828 81.08 46.1153 81.7136 45.7182C82.3473 45.3211 83.0799 45.1104 83.8277 45.1104C84.5755 45.1104 85.3081 45.3211 85.9418 45.7182C86.5754 46.1153 87.0844 46.6828 87.4104 47.3558L92.9589 58.6825L105.363 60.4988C106.037 60.5972 106.673 60.8675 107.212 61.2835C107.75 61.6996 108.172 62.2473 108.437 62.8739ZM150.412 144.037H89.8137C89.8137 144.029 89.8161 144.021 89.8161 144.012V90.1404L94.9208 92.8443C95.5794 93.1935 96.3231 93.3501 97.0666 93.2964C97.8102 93.2427 98.5236 92.9808 99.1252 92.5406C99.729 92.0982 100.198 91.4963 100.478 90.8024C100.759 90.1086 100.841 89.3502 100.715 88.6124L98.7156 76.8688C97.4034 77.0832 96.087 77.2841 94.7709 77.4859L96.7803 89.2905L83.8286 82.4298L70.8769 89.2905L72.4099 80.285C71.028 80.4183 69.6569 80.5426 68.2966 80.6578L66.9426 88.6125C66.8163 89.3503 66.8981 90.1086 67.1789 90.8025C67.4596 91.4963 67.9282 92.0983 68.5319 92.5407C69.1336 92.9809 69.847 93.2428 70.5905 93.2965C71.3341 93.3502 72.0777 93.1935 72.7364 92.8444L77.8411 90.1404V144.012C77.8411 144.021 77.8434 144.029 77.8435 144.037H17.2434C16.9594 144 16.6708 144.024 16.3969 144.107C16.1229 144.19 15.8699 144.331 15.6547 144.52C15.4395 144.709 15.2671 144.942 15.1489 145.203C15.0308 145.463 14.9697 145.747 14.9697 146.033C14.9697 146.319 15.0308 146.602 15.1489 146.863C15.2671 147.124 15.4395 147.357 15.6547 147.546C15.8699 147.735 16.1229 147.875 16.3969 147.959C16.6708 148.042 16.9594 148.066 17.2434 148.029H150.412C150.696 148.066 150.985 148.042 151.258 147.959C151.532 147.875 151.785 147.735 152.001 147.546C152.216 147.357 152.388 147.124 152.506 146.863C152.625 146.602 152.686 146.319 152.686 146.033C152.686 145.747 152.625 145.463 152.506 145.203C152.388 144.942 152.216 144.709 152.001 144.52C151.785 144.331 151.532 144.19 151.258 144.107C150.985 144.024 150.696 144 150.412 144.037V144.037ZM81.8328 88.0259L83.8286 86.9686L85.8244 88.0259V121.923H81.8328V88.0259ZM81.8328 125.939H85.8244V144.012H81.8328V125.939ZM101.957 11.9754C102.549 11.9754 103.128 11.7998 103.62 11.4708C104.113 11.1418 104.496 10.6743 104.723 10.1272C104.95 9.58016 105.009 8.9782 104.893 8.39745C104.778 7.8167 104.493 7.28325 104.074 6.86455C103.655 6.44586 103.122 6.16072 102.541 6.04521C101.96 5.92969 101.358 5.98898 100.811 6.21557C100.264 6.44217 99.7967 6.8259 99.4678 7.31823C99.1388 7.81056 98.9632 8.38939 98.9632 8.98152C98.9641 9.77526 99.2798 10.5362 99.8411 11.0975C100.402 11.6587 101.163 11.9745 101.957 11.9754ZM101.957 7.4846C102.253 7.4846 102.543 7.57239 102.789 7.73688C103.035 7.90136 103.227 8.13515 103.34 8.40867C103.453 8.6822 103.483 8.98318 103.425 9.27355C103.367 9.56393 103.225 9.83065 103.016 10.04C102.806 10.2493 102.539 10.3919 102.249 10.4497C101.959 10.5074 101.658 10.4778 101.384 10.3645C101.111 10.2512 100.877 10.0593 100.712 9.81316C100.548 9.567 100.46 9.27758 100.46 8.98152C100.461 8.58463 100.618 8.20411 100.899 7.92347C101.18 7.64283 101.56 7.48499 101.957 7.4846ZM161.002 41.5811C160.607 41.5811 160.222 41.6982 159.893 41.9175C159.565 42.1368 159.309 42.4485 159.158 42.8132C159.007 43.1779 158.968 43.5792 159.045 43.9664C159.122 44.3535 159.312 44.7092 159.591 44.9883C159.87 45.2674 160.226 45.4575 160.613 45.5345C161 45.6116 161.401 45.572 161.766 45.421C162.131 45.2699 162.442 45.0141 162.662 44.6859C162.881 44.3576 162.998 43.9718 162.998 43.577C162.997 43.0478 162.787 42.5405 162.413 42.1664C162.039 41.7922 161.531 41.5817 161.002 41.5811ZM161.002 44.575C160.805 44.575 160.612 44.5164 160.448 44.4068C160.284 44.2971 160.156 44.1413 160.08 43.9589C160.005 43.7766 159.985 43.5759 160.023 43.3823C160.062 43.1887 160.157 43.0109 160.297 42.8713C160.436 42.7318 160.614 42.6367 160.808 42.5982C161.001 42.5597 161.202 42.5795 161.384 42.655C161.566 42.7306 161.722 42.8585 161.832 43.0226C161.942 43.1867 162 43.3796 162 43.577C162 43.8416 161.895 44.0953 161.708 44.2824C161.52 44.4695 161.267 44.5747 161.002 44.575ZM142.041 0C141.646 0 141.261 0.117057 140.932 0.336369C140.604 0.55568 140.348 0.867396 140.197 1.2321C140.046 1.5968 140.007 1.99811 140.084 2.38527C140.161 2.77244 140.351 3.12807 140.63 3.4072C140.909 3.68633 141.265 3.87642 141.652 3.95344C142.039 4.03045 142.44 3.99092 142.805 3.83986C143.17 3.68879 143.481 3.43297 143.701 3.10475C143.92 2.77653 144.037 2.39064 144.037 1.99589C144.036 1.46674 143.826 0.959423 143.452 0.585252C143.078 0.21108 142.57 0.000604848 142.041 0ZM142.041 2.99384C141.844 2.99384 141.651 2.93531 141.487 2.82566C141.323 2.716 141.195 2.56014 141.119 2.37779C141.044 2.19544 141.024 1.99479 141.062 1.8012C141.101 1.60762 141.196 1.4298 141.336 1.29024C141.475 1.15067 141.653 1.05563 141.847 1.01712C142.04 0.978616 142.241 0.998379 142.423 1.07391C142.605 1.14944 142.761 1.27735 142.871 1.44146C142.981 1.60558 143.039 1.79852 143.039 1.99589C143.039 2.26048 142.934 2.51416 142.747 2.70126C142.559 2.88835 142.306 2.99358 142.041 2.99384ZM137.051 30.9363C136.657 30.9363 136.271 31.0534 135.943 31.2727C135.614 31.492 135.359 31.8037 135.208 32.1684C135.056 32.5331 135.017 32.9345 135.094 33.3216C135.171 33.7088 135.361 34.0644 135.64 34.3435C135.919 34.6227 136.275 34.8128 136.662 34.8898C137.049 34.9668 137.451 34.9273 137.815 34.7762C138.18 34.6251 138.492 34.3693 138.711 34.0411C138.93 33.7129 139.047 33.327 139.047 32.9322C139.047 32.4031 138.836 31.8958 138.462 31.5216C138.088 31.1474 137.581 30.9369 137.051 30.9363ZM137.051 33.9302C136.854 33.9302 136.661 33.8717 136.497 33.762C136.333 33.6523 136.205 33.4965 136.13 33.3141C136.054 33.1318 136.034 32.9311 136.073 32.7375C136.111 32.544 136.206 32.3661 136.346 32.2266C136.485 32.087 136.663 31.992 136.857 31.9535C137.05 31.915 137.251 31.9347 137.433 32.0103C137.616 32.0858 137.772 32.2137 137.881 32.3778C137.991 32.5419 138.049 32.7349 138.049 32.9322C138.049 33.1968 137.944 33.4505 137.757 33.6376C137.57 33.8247 137.316 33.9299 137.051 33.9302ZM39.4736 15.385C39.4736 14.9903 39.3566 14.6044 39.1373 14.2762C38.918 13.9479 38.6063 13.6921 38.2415 13.541C37.8768 13.39 37.4755 13.3505 37.0884 13.4275C36.7012 13.5045 36.3456 13.6946 36.0664 13.9737C35.7873 14.2528 35.5972 14.6085 35.5202 14.9956C35.4432 15.3828 35.4827 15.7841 35.6338 16.1488C35.7849 16.5135 36.0407 16.8252 36.3689 17.0445C36.6971 17.2638 37.083 17.3809 37.4778 17.3809C38.0069 17.3803 38.5142 17.1698 38.8884 16.7957C39.2626 16.4215 39.473 15.9142 39.4736 15.385ZM36.4798 15.385C36.4798 15.1876 36.5383 14.9947 36.648 14.8306C36.7576 14.6665 36.9135 14.5386 37.0959 14.463C37.2782 14.3875 37.4789 14.3677 37.6724 14.4062C37.866 14.4447 38.0438 14.5398 38.1834 14.6794C38.323 14.8189 38.418 14.9967 38.4565 15.1903C38.495 15.3839 38.4753 15.5846 38.3997 15.7669C38.3242 15.9493 38.1963 16.1051 38.0322 16.2148C37.8681 16.3244 37.6751 16.383 37.4778 16.383C37.2132 16.3827 36.9595 16.2775 36.7724 16.0904C36.5853 15.9033 36.4801 15.6496 36.4798 15.385Z" fill="#444E50"/>
<path d="M10.1352 32.3139L11.6191 30.3629L10.682 29.832L9.72999 32.0175H9.69805L8.73104 29.847L7.777 30.3939L9.24598 32.299V32.3299L6.94971 32.0335V33.0943L9.26095 32.7989V32.8299L7.777 34.7339L8.66717 35.2968L9.68308 33.0943H9.71302L10.6501 35.2808L11.6341 34.719L10.1352 32.8448V32.8139L12.4923 33.0943V32.0335L10.1352 32.3449V32.3139Z" fill="#1DA95B"/>
<path d="M12.2197 2.62537L11.3654 3.72212L11.8784 4.04645L12.4632 2.77806H12.4802L13.02 4.03747L13.5869 3.71314L12.7237 2.63435V2.61639L14.0809 2.77806V2.16632L12.7237 2.34695V2.32898L13.5779 1.2053L13.038 0.898926L12.4901 2.15734H12.4722L11.9143 0.907907L11.3654 1.22226L12.2107 2.32V2.33796L10.8884 2.16632V2.77806L12.2197 2.60741V2.62537Z" fill="#1DA95B"/>
<path d="M164.632 20.0056V18.9647L162.321 19.2701V19.2402L163.776 17.3261L162.857 16.8052L161.923 18.9488H161.892L160.943 16.8201L160.008 17.356L161.448 19.2252V19.2551L159.195 18.9647V20.0056L161.463 19.7152V19.7451L160.008 21.6133L160.88 22.1651L161.877 20.0056H161.907L162.826 22.1502L163.791 21.5983L162.321 19.7611V19.7302L164.632 20.0056Z" fill="#1DA95B"/>
<path d="M68.0509 3.08554L69.3063 1.43394L68.514 0.984863L67.7076 2.83406H67.6807L66.8624 0.997837L66.056 1.46088L67.2985 3.07257V3.09851L65.3555 2.84803V3.74618L67.3104 3.4957V3.52164L66.056 5.13333L66.8085 5.60935L67.6677 3.74618H67.6937L68.487 5.59538L69.3193 5.12035L68.0509 3.53462V3.50867L70.0458 3.74618V2.84803L68.0509 3.11149V3.08554Z" fill="#1DA95B"/>
</svg>
